<svg id="Layer_1" data-name="Layer 1" xmlns="http://www.w3.org/2000/svg" viewBox="0 0 501.58 107.61"><defs><style>.cls-1,.cls-2{fill:#ec6400;}.cls-2{font-size:18.77px;font-family:CenturyGothic-Bold, Century Gothic;font-weight:700;letter-spacing:1.23em;}</style></defs><title>Untitled-1</title><path class="cls-1" d="M130.13,209.37l-6.83,23.81L66.94,262.9h47.84l-5.86,20.44H25.15l6.77-23.61,57.23-29.82H40.47l5.89-20.54Z" transform="translate(-23.42 -209.37)"/><path class="cls-1" d="M122.41,283.34l21.21-74h24.55l-21.21,74Z" transform="translate(-23.42 -209.37)"/><path class="cls-1" d="M429.91,209.37h29l-50.82,52.26-6.22,21.71H377.4l6.23-21.71-20.74-52.26h29l11.66,25.5Z" transform="translate(-23.42 -209.37)"/><path class="cls-1" d="M227.71,242.75a1.61,1.61,0,0,0-1.64,1.58,2,2,0,0,0,1.94,1.91,1.57,1.57,0,0,0,1.59-1.61A1.94,1.94,0,0,0,227.71,242.75Z" transform="translate(-23.42 -209.37)"/><path class="cls-1" d="M204.82,242.75a1.59,1.59,0,0,0-1.14.46,1.15,1.15,0,0,0-.14.17,1.27,1.27,0,0,0-.13.19h0a2.2,2.2,0,0,0-.09.21s0,0,0,0a1.46,1.46,0,0,0-.05.2,2,2,0,0,0,0,.35.91.91,0,0,0,0,.17c0,.05,0,.1,0,.16a1.6,1.6,0,0,0,.12.37l.08.17a1.92,1.92,0,0,0,1.11.92h0l.23.05h.47l.21,0,.09,0,.25-.1a.83.83,0,0,0,.22-.14,1.33,1.33,0,0,0,.19-.14l.09-.1a1.56,1.56,0,0,0,.39-1A2,2,0,0,0,204.82,242.75Z" transform="translate(-23.42 -209.37)"/><path class="cls-1" d="M208.45,233.64l-.18-2h-.51c-1,0-2,0-3,0a1.61,1.61,0,0,0-1,.42c-.82.83-1.61,1.7-2.44,2.6l-1,1.07h8.34l-.06-.63Z" transform="translate(-23.42 -209.37)"/><path class="cls-1" d="M258.79,227.54a19,19,0,0,0-1.44-7.48,13.91,13.91,0,0,0-3.88-5,22.39,22.39,0,0,0-5-3.22,24.77,24.77,0,0,0-5.74-1.68,45.25,45.25,0,0,0-5.12-.69c-1.25-.07-2.57-.1-4-.1H181.66l-21.21,74H185l4.29-15h28.24a35.86,35.86,0,0,0,4.18-.27,50.23,50.23,0,0,0,5.63-1.05,44.58,44.58,0,0,0,6.55-2.11,41.36,41.36,0,0,0,6.86-3.69,38.19,38.19,0,0,0,6.62-5.48A38.92,38.92,0,0,0,253,248a46.79,46.79,0,0,0,4.26-10.28A34.38,34.38,0,0,0,258.79,227.54ZM205.27,248a3.84,3.84,0,0,1-3.8-3.85,3.16,3.16,0,0,1,3.21-3.14,3.89,3.89,0,0,1,3.8,3.81A3.13,3.13,0,0,1,205.27,248Zm22.83,0a3.86,3.86,0,0,1-3.76-3.83,3.17,3.17,0,0,1,3.25-3.16,3.89,3.89,0,0,1,3.76,3.85A3.12,3.12,0,0,1,228.1,248ZM242,236.83a1.54,1.54,0,0,1-.61,0h-9c-.14,0-.28,0-.41,0-.46,0-.88.11-.88.63s.37.79.91.79c1,0,2,0,3,0h.23a.64.64,0,0,1,.64.58c.13,1.48.26,2.91.36,4.33.06.93-.31,1.27-1.25,1.27h-2.16a.64.64,0,0,1-.61-.45c-.82-2.56-2.73-4.09-4.92-3.93s-3.42,1.42-3.83,3.79a.65.65,0,0,1-.63.54H209.93a.64.64,0,0,1-.62-.5,5,5,0,0,0-2.06-3,4.5,4.5,0,0,0-2.83-.85c-2.12.1-3.29,1.27-3.86,3.85a.63.63,0,0,1-.64.5c-.76,0-1.12-.42-1.21-1.35-.18-1.81-.31-3.63-.46-5.45a3,3,0,0,1,.88-2.42c1.17-1.24,2.31-2.51,3.46-3.78a2.9,2.9,0,0,1,2.25-1h3.81a.64.64,0,0,0,.64-.69c-.06-.63-.1-1.22-.16-1.81,0-.36-.07-.73-.06-1.09a1,1,0,0,1,1.06-1.08H233l4.67,1.37c.51.07.95.16.95.74s-.46.63-.93.63H228.5a1.54,1.54,0,0,0-.61,0c-.26.15-.66.39-.66.6s.3.56.56.74.48.06.73.06h12c.48,0,.82.21.82.72s-.4.63-.86.62H230.26c-.5,0-1,0-1.07.65-.05.49.39.81,1.11.81h8.49c.18,0,.42-.07.53,0a1.13,1.13,0,0,1,.26.23.62.62,0,0,1-.1,1,.45.45,0,0,1-.18.07c-1.16.06-2.33,0-3.49,0h-8.07c-.53,0-1.11,0-1.09.7s.53.75,1.09.75h13.68c.2,0,.48-.07.6,0a1.64,1.64,0,0,1,.58.78C242.63,236.43,242.23,236.7,242,236.83Z" transform="translate(-23.42 -209.37)"/><path class="cls-1" d="M354.05,227.54a19.41,19.41,0,0,0-1.44-7.48,13.93,13.93,0,0,0-3.89-5,22.17,22.17,0,0,0-5-3.22,24.68,24.68,0,0,0-5.73-1.68,45.37,45.37,0,0,0-5.13-.69c-1.24-.07-2.57-.1-4-.1H276.91l-21.21,74h24.55l4.29-15h28.24a36,36,0,0,0,4.19-.27,50.11,50.11,0,0,0,5.62-1.05,44.7,44.7,0,0,0,6.56-2.11,41.3,41.3,0,0,0,6.85-3.69,37.89,37.89,0,0,0,6.63-5.48,38.92,38.92,0,0,0,5.65-7.74,46.79,46.79,0,0,0,4.26-10.28A34.38,34.38,0,0,0,354.05,227.54ZM301.49,248a3.84,3.84,0,0,1-3.8-3.85A3.16,3.16,0,0,1,300.9,241a3.91,3.91,0,0,1,3.81,3.81A3.14,3.14,0,0,1,301.49,248Zm22.83,0a3.86,3.86,0,0,1-3.76-3.83,3.17,3.17,0,0,1,3.25-3.16,3.89,3.89,0,0,1,3.76,3.85A3.12,3.12,0,0,1,324.32,248Zm13.88-11.15a1.54,1.54,0,0,1-.61,0h-9c-.13,0-.28,0-.41,0-.46,0-.88.11-.88.63s.37.79.91.79c1,0,2,0,3,0h.23a.64.64,0,0,1,.64.58c.13,1.48.26,2.91.36,4.33.06.93-.31,1.27-1.25,1.27H329a.62.62,0,0,1-.6-.45c-.83-2.56-2.74-4.09-4.93-3.93s-3.42,1.42-3.83,3.79a.65.65,0,0,1-.63.54H306.15a.64.64,0,0,1-.62-.5,5,5,0,0,0-2.06-3,4.5,4.5,0,0,0-2.83-.85c-2.12.1-3.29,1.27-3.86,3.85a.63.63,0,0,1-.64.5c-.76,0-1.12-.42-1.21-1.35-.18-1.81-.31-3.63-.46-5.45a3,3,0,0,1,.88-2.42c1.17-1.24,2.31-2.51,3.46-3.78a2.9,2.9,0,0,1,2.25-1h3.81a.64.64,0,0,0,.64-.69c-.06-.63-.1-1.22-.16-1.81,0-.36-.07-.73-.06-1.09a1,1,0,0,1,1.06-1.08H329.2l4.67,1.37c.51.07.95.16.95.74s-.46.63-.93.63h-9.17a1.54,1.54,0,0,0-.61,0c-.26.15-.66.39-.66.6s.3.56.56.74.48.06.73.06h12c.48,0,.82.21.82.72s-.4.63-.86.62H326.48c-.5,0-1,0-1.07.65-.05.49.39.81,1.11.81H335c.18,0,.42-.07.53,0a1.13,1.13,0,0,1,.26.23.62.62,0,0,1-.1,1,.45.45,0,0,1-.18.07c-1.16.06-2.33,0-3.49,0H324c-.53,0-1.1,0-1.09.7s.53.75,1.09.75h13.68c.21,0,.48-.07.6,0a1.64,1.64,0,0,1,.58.78C338.85,236.43,338.45,236.7,338.2,236.83Z" transform="translate(-23.42 -209.37)"/><path class="cls-1" d="M323.93,242.75a1.61,1.61,0,0,0-1.64,1.58,2,2,0,0,0,1.94,1.91,1.57,1.57,0,0,0,1.59-1.61A1.94,1.94,0,0,0,323.93,242.75Z" transform="translate(-23.42 -209.37)"/><path class="cls-1" d="M301,242.75a1.59,1.59,0,0,0-1.14.46,1.15,1.15,0,0,0-.14.17,1.27,1.27,0,0,0-.13.19h0a2.2,2.2,0,0,0-.09.21s0,0,0,0a1.46,1.46,0,0,0,0,.2,2,2,0,0,0,0,.35.91.91,0,0,0,0,.17c0,.05,0,.1,0,.16a1.6,1.6,0,0,0,.12.37l.08.17a1.92,1.92,0,0,0,1.11.92h0l.23.05h.47l.21,0,.09,0,.25-.1a.83.83,0,0,0,.22-.14,1.33,1.33,0,0,0,.19-.14l.09-.1a1.56,1.56,0,0,0,.39-1A2,2,0,0,0,301,242.75Z" transform="translate(-23.42 -209.37)"/><path class="cls-1" d="M304.67,233.64l-.18-2H304c-1,0-2,0-3,0a1.61,1.61,0,0,0-1.05.42c-.82.83-1.61,1.7-2.44,2.6-.32.35-.64.71-1,1.07h8.34l-.06-.63Z" transform="translate(-23.42 -209.37)"/><polygon class="cls-1" points="462.46 1.68 428.04 3.24 428.04 0.11 462.46 1.68 462.46 1.68 462.46 1.68"/><polygon class="cls-1" points="459.34 4.81 424.92 6.37 424.92 3.24 459.34 4.81 459.34 4.81 459.34 4.81"/><polygon class="cls-1" points="456.21 7.93 421.79 9.5 421.79 6.37 456.21 7.93 456.21 7.93 456.21 7.93"/><polygon class="cls-1" points="453.08 11.06 418.66 12.63 418.66 9.5 453.08 11.06 453.08 11.06 453.08 11.06"/><polygon class="cls-1" points="449.95 14.19 415.53 15.76 415.53 12.63 449.95 14.19 449.95 14.19 449.95 14.19"/><polygon class="cls-1" points="446.82 17.32 412.4 18.89 412.4 15.76 446.82 17.32 446.82 17.32 446.82 17.32"/><polygon class="cls-1" points="444.47 20.45 410.05 22.02 410.05 18.89 444.47 20.45 444.47 20.45 444.47 20.45"/><polygon class="cls-1" points="441.34 23.58 406.92 25.14 406.92 22.02 441.34 23.58 441.34 23.58 441.34 23.58"/><polygon class="cls-1" points="438.21 26.71 403.79 28.27 403.79 25.14 438.21 26.71 438.21 26.71 438.21 26.71"/><polygon class="cls-1" points="435.08 29.84 400.67 31.4 400.67 28.27 435.08 29.84 435.08 29.84 435.08 29.84"/><polygon class="cls-1" points="431.96 32.97 397.54 34.53 397.54 31.4 431.96 32.97 431.96 32.97 431.96 32.97"/><polygon class="cls-1" points="428.83 36.1 394.41 37.66 394.41 34.53 428.83 36.1 428.83 36.1 428.83 36.1"/><polygon class="cls-1" points="424.92 39.23 390.5 40.79 390.5 37.66 424.92 39.23 424.92 39.23 424.92 39.23"/><polygon class="cls-1" points="421 42.35 386.58 43.92 386.58 40.79 421 42.35 421 42.35 421 42.35"/><polygon class="cls-1" points="418.66 45.48 384.24 47.05 384.24 43.92 418.66 45.48 418.66 45.48 418.66 45.48"/><polygon class="cls-1" points="416.31 48.61 381.89 50.18 381.89 47.05 416.31 48.61 416.31 48.61 416.31 48.61"/><polygon class="cls-1" points="413.18 51.74 378.76 53.31 378.76 50.18 413.18 51.74 413.18 51.74 413.18 51.74"/><polygon class="cls-1" points="412.4 54.87 377.98 56.44 377.98 53.31 412.4 54.87 412.4 54.87 412.4 54.87"/><polygon class="cls-1" points="410.83 58 376.41 59.56 376.41 56.44 410.83 58 410.83 58 410.83 58"/><polygon class="cls-1" points="409.27 61.13 374.85 62.7 374.85 59.56 409.27 61.13 409.27 61.13 409.27 61.13"/><polygon class="cls-1" points="407.7 64.26 373.29 65.82 373.29 62.7 407.7 64.26 407.7 64.26 407.7 64.26"/><polygon class="cls-1" points="406.14 67.39 371.72 68.95 371.72 65.82 406.14 67.39 406.14 67.39 406.14 67.39"/><polygon class="cls-1" points="404.58 70.52 370.16 72.08 370.16 68.95 404.58 70.52 404.58 70.52 404.58 70.52"/><polygon class="cls-1" points="403.01 73.65 368.59 73.65 368.59 72.08 403.01 73.65 403.01 73.65 403.01 73.65"/><text class="cls-2" transform="translate(0 98.05)">ECOM SOLUTIONS</text></svg>